<svg width="15" height="16" viewBox="0 0 15 16" fill="none" xmlns="http://www.w3.org/2000/svg">
<path d="M10.0446 9H11.3839C11.6049 9 11.7857 8.83125 11.7857 8.625V7.375C11.7857 7.16875 11.6049 7 11.3839 7H10.0446C9.82366 7 9.64286 7.16875 9.64286 7.375V8.625C9.64286 8.83125 9.82366 9 10.0446 9ZM6.42857 8.625V7.375C6.42857 7.16875 6.60938 7 6.83036 7H8.16964C8.39062 7 8.57143 7.16875 8.57143 7.375V8.625C8.57143 8.83125 8.39062 9 8.16964 9H6.83036C6.60938 9 6.42857 8.83125 6.42857 8.625ZM3.21429 8.625V7.375C3.21429 7.16875 3.39509 7 3.61607 7H4.95536C5.17634 7 5.35714 7.16875 5.35714 7.375V8.625C5.35714 8.83125 5.17634 9 4.95536 9H3.61607C3.39509 9 3.21429 8.83125 3.21429 8.625ZM6.42857 11.625V10.375C6.42857 10.1687 6.60938 10 6.83036 10H8.16964C8.39062 10 8.57143 10.1687 8.57143 10.375V11.625C8.57143 11.8313 8.39062 12 8.16964 12H6.83036C6.60938 12 6.42857 11.8313 6.42857 11.625ZM9.64286 11.625V10.375C9.64286 10.1687 9.82366 10 10.0446 10H11.3839C11.6049 10 11.7857 10.1687 11.7857 10.375V11.625C11.7857 11.8313 11.6049 12 11.3839 12H10.0446C9.82366 12 9.64286 11.8313 9.64286 11.625ZM3.21429 11.625V10.375C3.21429 10.1687 3.39509 10 3.61607 10H4.95536C5.17634 10 5.35714 10.1687 5.35714 10.375V11.625C5.35714 11.8313 5.17634 12 4.95536 12H3.61607C3.39509 12 3.21429 11.8313 3.21429 11.625ZM0 3.5V14.5C0 15.3281 0.719867 16 1.60714 16H13.3929C14.2801 16 15 15.3281 15 14.5V3.5C15 2.67188 14.2801 2 13.3929 2H11.7857V0.375C11.7857 0.16875 11.6049 0 11.3839 0H10.0446C9.82366 0 9.64286 0.16875 9.64286 0.375V2H5.35714V0.375C5.35714 0.16875 5.17634 0 4.95536 0H3.61607C3.39509 0 3.21429 0.16875 3.21429 0.375V2H1.60714C0.719867 2 0 2.67188 0 3.5ZM1.60714 14.3125V5H13.3929V14.3125C13.3929 14.4156 13.3025 14.5 13.192 14.5H1.80804C1.69755 14.5 1.60714 14.4156 1.60714 14.3125Z" fill="#9E9E9E"/>
</svg>
