<svg width="18" height="18" viewBox="0 0 14 14" fill="none" xmlns="http://www.w3.org/2000/svg">
<path d="M4.586 7.414L6.0005 6L4.586 7.414ZM7.4145 4.586L6.0005 6L7.4145 4.586ZM6.0005 6L4.586 4.586L6.0005 6ZM6.0005 6L7.4145 7.414L6.0005 6ZM6 11C8.7615 11 11 8.7615 11 6C11 3.2385 8.7615 1 6 1C3.2385 1 1 3.2385 1 6C1 8.7615 3.2385 11 6 11Z" fill="#B3FEA9"/>
<path d="M4.586 7.414L6.0005 6L4.586 7.414ZM7.4145 4.586L6.0005 6L7.4145 4.586ZM6.0005 6L4.586 4.586L6.0005 6ZM6.0005 6L7.4145 7.414L6.0005 6ZM6 11C8.7615 11 11 8.7615 11 6C11 3.2385 8.7615 1 6 1C3.2385 1 1 3.2385 1 6C1 8.7615 3.2385 11 6 11Z" stroke="#212227" stroke-linecap="round" stroke-linejoin="round"/>
<path d="M4.586 7.414L6.0005 6L4.586 7.414ZM7.4145 4.586L6.0005 6L7.4145 4.586ZM6.0005 6L4.586 4.586L6.0005 6ZM6.0005 6L7.4145 7.414L6.0005 6ZM6 11C8.7615 11 11 8.7615 11 6C11 3.2385 8.7615 1 6 1C3.2385 1 1 3.2385 1 6C1 8.7615 3.2385 11 6 11Z" stroke="black" stroke-opacity="0.2" stroke-linecap="round" stroke-linejoin="round"/>
</svg>
