<?xml-stylesheet type="text/css" href="../css/style.css"?>

<svg  width="22" height="22" viewBox="0 0 22 22" fill="none" xmlns="http://www.w3.org/2000/svg">
 <script><![CDATA[
 this.onclick=clickTwit;
 function clickTwit(e)
{
    let target = e.target;
    if (target.classList.contains('del')) {
        alert('del')
    } 
   
   
}

 ]]></script>
<path d="M8.40174 13.828L11.2307 11L8.40174 13.828ZM14.0587 8.172L11.2307 11L14.0587 8.172ZM11.2307 11L8.40174 8.172L11.2307 11ZM11.2307 11L14.0587 13.828L11.2307 11ZM11.2297 21C16.7527 21 21.2297 16.523 21.2297 11C21.2297 5.477 16.7527 1 11.2297 1C5.70674 1 1.22974 5.477 1.22974 11C1.22974 16.523 5.70674 21 11.2297 21Z" fill="#B3FEA9"/>
<path d="M8.40174 13.828L11.2307 11L8.40174 13.828ZM14.0587 8.172L11.2307 11L14.0587 8.172ZM11.2307 11L8.40174 8.172L11.2307 11ZM11.2307 11L14.0587 13.828L11.2307 11ZM11.2297 21C16.7527 21 21.2297 16.523 21.2297 11C21.2297 5.477 16.7527 1 11.2297 1C5.70674 1 1.22974 5.477 1.22974 11C1.22974 16.523 5.70674 21 11.2297 21Z" stroke="#212227" stroke-width="1.5" stroke-linecap="round" stroke-linejoin="round"/>
<path d="M8.40174 13.828L11.2307 11L8.40174 13.828ZM14.0587 8.172L11.2307 11L14.0587 8.172ZM11.2307 11L8.40174 8.172L11.2307 11ZM11.2307 11L14.0587 13.828L11.2307 11ZM11.2297 21C16.7527 21 21.2297 16.523 21.2297 11C21.2297 5.477 16.7527 1 11.2297 1C5.70674 1 1.22974 5.477 1.22974 11C1.22974 16.523 5.70674 21 11.2297 21Z" stroke="black" stroke-opacity="0.2" stroke-width="1.5" stroke-linecap="round" stroke-linejoin="round"/>
</svg>
