<svg width="27" height="27" viewBox="0 0 27 27" fill="none" xmlns="http://www.w3.org/2000/svg">
<path d="M9.965 17.035L13.5013 13.5L9.965 17.035ZM17.0363 9.965L13.5013 13.5L17.0363 9.965ZM13.5013 13.5L9.965 9.965L13.5013 13.5ZM13.5013 13.5L17.0363 17.035L13.5013 13.5ZM13.5 26C20.4037 26 26 20.4037 26 13.5C26 6.59625 20.4037 1 13.5 1C6.59625 1 1 6.59625 1 13.5C1 20.4037 6.59625 26 13.5 26Z" fill="#B3FEA9"/>
<path d="M9.965 17.035L13.5013 13.5L9.965 17.035ZM17.0363 9.965L13.5013 13.5L17.0363 9.965ZM13.5013 13.5L9.965 9.965L13.5013 13.5ZM13.5013 13.5L17.0363 17.035L13.5013 13.5ZM13.5 26C20.4037 26 26 20.4037 26 13.5C26 6.59625 20.4037 1 13.5 1C6.59625 1 1 6.59625 1 13.5C1 20.4037 6.59625 26 13.5 26Z" stroke="#212227" stroke-width="1.5" stroke-linecap="round" stroke-linejoin="round"/>
<path d="M9.965 17.035L13.5013 13.5L9.965 17.035ZM17.0363 9.965L13.5013 13.5L17.0363 9.965ZM13.5013 13.5L9.965 9.965L13.5013 13.5ZM13.5013 13.5L17.0363 17.035L13.5013 13.5ZM13.5 26C20.4037 26 26 20.4037 26 13.5C26 6.59625 20.4037 1 13.5 1C6.59625 1 1 6.59625 1 13.5C1 20.4037 6.59625 26 13.5 26Z" stroke="black" stroke-opacity="0.2" stroke-width="1.5" stroke-linecap="round" stroke-linejoin="round"/>
</svg>
