<?xml-stylesheet type="text/css" href="../style.css"?>
<svg class="edit" width="24" height="20" viewBox="0 0 24 20" fill="none" xmlns="http://www.w3.org/2000/svg">
<script><![CDATA[
 this.onclick=clickTwit;
 function clickTwit(e)
{
    let target = e.target;

    if (target.classList.contains('edit')) {
        alert('edit')
    }
    
}

 ]]></script>
<path d="M1.68927 19H23.251H1.68927Z" fill="#B3FEA9"/>
<path d="M1.68927 19H23.251" stroke="#212227" stroke-width="1.5" stroke-linecap="round" stroke-linejoin="round"/>
<path d="M1.68927 19H23.251" stroke="black" stroke-opacity="0.2" stroke-width="1.5" stroke-linecap="round" stroke-linejoin="round"/>
<path d="M12.5702 4.30809L15.8783 1L21.6686 6.79032L18.3605 10.0984L12.5702 4.30809ZM12.5702 4.30809L6.01132 10.8669C5.79193 11.0863 5.66865 11.3837 5.66858 11.694V17H10.9746C11.2848 16.9999 11.5823 16.8766 11.8016 16.6573L18.3605 10.0984L12.5702 4.30809ZM12.5702 4.30809L18.3605 10.0984L12.5702 4.30809Z" fill="#B3FEA9"/>
<path d="M12.5702 4.30809L18.3605 10.0984M12.5702 4.30809L15.8783 1L21.6686 6.79032L18.3605 10.0984L12.5702 4.30809ZM12.5702 4.30809L6.01132 10.8669C5.79193 11.0863 5.66865 11.3837 5.66858 11.694V17H10.9746C11.2848 16.9999 11.5823 16.8766 11.8016 16.6573L18.3605 10.0984L12.5702 4.30809Z" stroke="#212227" stroke-width="1.5" stroke-linecap="round" stroke-linejoin="round"/>
<path d="M12.5702 4.30809L18.3605 10.0984M12.5702 4.30809L15.8783 1L21.6686 6.79032L18.3605 10.0984L12.5702 4.30809ZM12.5702 4.30809L6.01132 10.8669C5.79193 11.0863 5.66865 11.3837 5.66858 11.694V17H10.9746C11.2848 16.9999 11.5823 16.8766 11.8016 16.6573L18.3605 10.0984L12.5702 4.30809Z" stroke="black" stroke-opacity="0.2" stroke-width="1.5" stroke-linecap="round" stroke-linejoin="round"/>
</svg>
