<svg width="94" height="34" viewBox="0 0 94 34" fill="none" xmlns="http://www.w3.org/2000/svg">
<path fill-rule="evenodd" clip-rule="evenodd" d="M24.1717 7.42071C24.0643 7.02861 23.6092 7.02861 23.5018 7.42071L22.8719 9.72219C22.7333 10.228 22.4999 10.6876 22.19 11.0646C21.8802 11.4416 21.5024 11.7256 21.0867 11.8942L19.1951 12.6605C19.1245 12.6887 19.0631 12.7433 19.0195 12.8165C18.976 12.8897 18.9525 12.9777 18.9525 13.0681C18.9525 13.1584 18.976 13.2465 19.0195 13.3197C19.0631 13.3929 19.1245 13.4474 19.1951 13.4756L21.0867 14.242C21.5024 14.4106 21.8802 14.6946 22.19 15.0716C22.4999 15.4486 22.7333 15.9082 22.8719 16.414L23.5018 18.7154C23.5249 18.8013 23.5698 18.8761 23.6299 18.9291C23.6901 18.9821 23.7624 19.0106 23.8367 19.0106C23.911 19.0106 23.9834 18.9821 24.0435 18.9291C24.1037 18.8761 24.1485 18.8013 24.1717 18.7154L24.8016 16.4151C24.94 15.9091 25.1734 15.4493 25.4832 15.0721C25.7931 14.6949 26.1709 14.4107 26.5867 14.242L28.4783 13.4756C28.8006 13.3449 28.8006 12.7912 28.4783 12.6605L26.5877 11.8942C26.1718 11.7258 25.7939 11.4418 25.4838 11.0648C25.1738 10.6878 24.9402 10.2281 24.8016 9.72219L24.1717 7.42071ZM19.8064 1.23427C19.7703 1.26601 19.7433 1.31078 19.7293 1.36224L19.3514 2.74289C19.2682 3.04644 19.1282 3.32226 18.9422 3.5485C18.7563 3.77474 18.5296 3.94518 18.2801 4.04631L17.1453 4.50613C17.103 4.52317 17.0662 4.55599 17.0401 4.59993C17.014 4.64387 17 4.69669 17 4.7509C17 4.8051 17.014 4.85792 17.0401 4.90186C17.0662 4.9458 17.103 4.97862 17.1453 4.99566L18.2801 5.45548C18.5296 5.55661 18.7563 5.72705 18.9422 5.95329C19.1282 6.17953 19.2682 6.45535 19.3514 6.7589L19.7293 8.13955C19.7433 8.19101 19.7703 8.23578 19.8064 8.26752C19.8425 8.29925 19.8859 8.31634 19.9305 8.31634C19.975 8.31634 20.0184 8.29925 20.0545 8.26752C20.0907 8.23578 20.1176 8.19101 20.1316 8.13955L20.5096 6.7589C20.5927 6.45535 20.7328 6.17953 20.9187 5.95329C21.1047 5.72705 21.3314 5.55661 21.5809 5.45548L22.7156 4.99566C22.7579 4.97862 22.7947 4.9458 22.8208 4.90186C22.8469 4.85792 22.8609 4.8051 22.8609 4.7509C22.8609 4.69669 22.8469 4.64387 22.8208 4.59993C22.7947 4.55599 22.7579 4.52317 22.7156 4.50613L21.5809 4.04631C21.075 3.84076 20.6785 3.35836 20.5096 2.74289L20.1316 1.36224C20.1176 1.31078 20.0907 1.26601 20.0545 1.23427C20.0184 1.20254 19.975 1.18545 19.9305 1.18545C19.8859 1.18545 19.8425 1.20254 19.8064 1.23427ZM26.6843 0.0319192C26.6603 0.0526817 26.6423 0.082018 26.6326 0.11585V0.117038L26.3816 1.03549C26.2693 1.4466 26.0047 1.76859 25.6668 1.90523L24.9109 2.21178C24.8831 2.22351 24.859 2.24549 24.842 2.27466C24.8249 2.30383 24.8157 2.33875 24.8157 2.37456C24.8157 2.41037 24.8249 2.44528 24.842 2.47446C24.859 2.50363 24.8831 2.52561 24.9109 2.53734L25.6658 2.84388C25.8323 2.91128 25.9837 3.02498 26.1077 3.17596C26.2318 3.32693 26.3253 3.51103 26.3807 3.71362L26.6326 4.63327C26.6423 4.6671 26.6603 4.69643 26.6843 4.7172C26.7083 4.73796 26.737 4.74912 26.7664 4.74912C26.7958 4.74912 26.8245 4.73796 26.8485 4.7172C26.8725 4.69643 26.8906 4.6671 26.9002 4.63327L27.1522 3.71362C27.2076 3.51103 27.301 3.32693 27.4251 3.17596C27.5492 3.02498 27.7005 2.91128 27.867 2.84388L28.6229 2.53734C28.6507 2.52561 28.6748 2.50363 28.6918 2.47446C28.7089 2.44528 28.7181 2.41037 28.7181 2.37456C28.7181 2.33875 28.7089 2.30383 28.6918 2.27466C28.6748 2.24549 28.6507 2.22351 28.6229 2.21178L27.867 1.90523C27.5291 1.76859 27.2645 1.4466 27.1522 1.03549L26.9002 0.11585C26.8906 0.082018 26.8725 0.0526817 26.8485 0.0319192C26.8245 0.0111568 26.7958 0 26.7664 0C26.737 0 26.7083 0.0111568 26.6843 0.0319192ZM57.2353 33.3794C57.5767 33.3415 57.8422 33.2941 58.0318 33.2372V23.1963C58.3352 23.0256 58.667 22.8834 59.0273 22.7696C59.3876 22.6369 59.7859 22.5705 60.222 22.5705C60.8857 22.5705 61.4262 22.7506 61.8433 23.1109C62.2795 23.4712 62.4976 24.0781 62.4976 24.9314V31.4452C62.4976 32.2416 62.6872 32.7821 63.0664 33.0665C63.4457 33.332 64.062 33.4647 64.9153 33.4647C65.3325 33.4647 65.7118 33.4363 66.0531 33.3794C66.3944 33.3415 66.6599 33.2941 66.8496 33.2372V24.6754C66.8496 22.836 66.3281 21.4612 65.2851 20.5509C64.2611 19.6218 62.8389 19.1572 61.0184 19.1572C60.4306 19.1572 59.8807 19.2235 59.3687 19.3563C58.8756 19.47 58.43 19.6218 58.0318 19.8114V16.5403C58.0318 15.7438 57.8422 15.2034 57.4629 14.9189C57.1026 14.6345 56.4958 14.4923 55.6424 14.4923C55.2253 14.4923 54.846 14.5207 54.5047 14.5776C54.1633 14.6345 53.8884 14.6914 53.6798 14.7483V31.4452C53.6798 32.2416 53.8694 32.7821 54.2487 33.0665C54.6279 33.332 55.2442 33.4647 56.0976 33.4647C56.5147 33.4647 56.894 33.4363 57.2353 33.3794ZM11.1787 32.7536C10.9321 32.9622 10.5529 33.1423 10.0409 33.2941C9.54785 33.4458 9.00741 33.5216 8.41956 33.5216C7.69896 33.5216 7.08267 33.4173 6.57067 33.2087C6.05867 33.0001 5.70785 32.7062 5.51822 32.3269C5.29067 31.8718 5.02519 31.2935 4.72178 30.5918C4.41837 29.8712 4.096 29.0843 3.75467 28.2309C3.4323 27.3586 3.09096 26.4295 2.73067 25.4434C2.37037 24.4573 2.01956 23.4712 1.67822 22.4852C1.35585 21.4801 1.04296 20.5035 0.739556 19.5554C0.455111 18.5883 0.208593 17.697 0 16.8816C0.246519 16.654 0.587852 16.436 1.024 16.2274C1.47911 16.0188 1.96267 15.9145 2.47467 15.9145C3.10044 15.9145 3.60296 16.0567 3.98222 16.3412C4.38045 16.6066 4.68385 17.0902 4.89244 17.7918C5.46133 19.764 6.03022 21.6603 6.59911 23.4807C7.168 25.3012 7.77482 27.1785 8.41956 29.1127H8.59022C9.15911 27.2733 9.74696 25.2443 10.3538 23.0256C10.9606 20.8069 11.5295 18.6072 12.0604 16.4265C12.3639 16.2748 12.6862 16.1515 13.0276 16.0567C13.3689 15.9619 13.7576 15.9145 14.1938 15.9145C14.8196 15.9145 15.3505 16.0567 15.7867 16.3412C16.2418 16.6256 16.4693 17.0902 16.4693 17.7349C16.4693 18.1332 16.365 18.7305 16.1564 19.5269C15.9668 20.3234 15.7108 21.2241 15.3884 22.2292C15.0661 23.2342 14.7058 24.2866 14.3076 25.3865C13.9093 26.4863 13.5111 27.5293 13.1129 28.5154C12.7336 29.5015 12.3639 30.3738 12.0036 31.1323C11.6622 31.8908 11.3873 32.4312 11.1787 32.7536ZM22.4798 33.2372C22.2901 33.2941 22.0247 33.3415 21.6833 33.3794C21.342 33.4363 20.9627 33.4647 20.5456 33.4647C19.6922 33.4647 19.0759 33.332 18.6967 33.0665C18.3364 32.7821 18.1562 32.2416 18.1562 31.4452V19.7545C18.3459 19.6976 18.6113 19.6407 18.9527 19.5838C19.294 19.5269 19.6733 19.4985 20.0904 19.4985C20.9438 19.4985 21.5506 19.6407 21.9109 19.9252C22.2901 20.2096 22.4798 20.75 22.4798 21.5465V33.2372ZM32.3049 30.3927C31.9067 30.4686 31.499 30.5065 31.0818 30.5065C30.3043 30.5065 29.7449 30.3738 29.4036 30.1083C29.0622 29.8428 28.8916 29.4825 28.8916 29.0274C28.8916 28.5912 29.0717 28.2689 29.432 28.0603C29.8113 27.8327 30.3043 27.6905 30.9111 27.6336L33.2436 27.4345V30.0514C33.035 30.1841 32.7221 30.2979 32.3049 30.3927ZM33.5849 19.4701C32.7884 19.2615 31.8972 19.1572 30.9111 19.1572C30.2095 19.1572 29.4889 19.2141 28.7493 19.3278C28.0287 19.4226 27.3935 19.5743 26.8436 19.7829C25.9713 20.1432 25.5351 20.7406 25.5351 21.5749C25.5351 21.9352 25.611 22.2766 25.7627 22.5989C25.9333 22.9023 26.1324 23.1299 26.36 23.2816C26.9099 23.0541 27.5262 22.8549 28.2089 22.6843C28.9105 22.5136 29.6216 22.4283 30.3422 22.4283C31.2714 22.4283 31.9825 22.5705 32.4756 22.8549C32.9686 23.1394 33.2151 23.585 33.2151 24.1918V24.5047L29.432 24.9029C27.8202 25.0736 26.6255 25.5003 25.848 26.1829C25.0705 26.8656 24.6818 27.8612 24.6818 29.1696C24.6818 30.7056 25.2602 31.8529 26.4169 32.6114C27.5736 33.3509 29.1286 33.7207 31.0818 33.7207C32.1627 33.7207 33.1298 33.6259 33.9831 33.4363C34.8364 33.2466 35.557 32.9717 36.1449 32.6114C36.5052 32.4028 36.8086 32.1563 37.0551 31.8718C37.3206 31.5684 37.4533 31.1702 37.4533 30.6772V24.2487C37.4533 23.3764 37.2921 22.6179 36.9698 21.9732C36.6664 21.3284 36.2302 20.7975 35.6613 20.3803C35.0924 19.9631 34.4003 19.6597 33.5849 19.4701ZM47.6693 22.5989C46.6453 22.5989 45.773 22.9308 45.0524 23.5945C44.3319 24.2392 43.9716 25.1969 43.9716 26.4674C43.9716 27.7379 44.3129 28.6861 44.9956 29.3118C45.6972 29.9376 46.579 30.2505 47.6409 30.2505C48.2477 30.2505 48.7787 30.1746 49.2338 30.0229C49.7079 29.8523 50.1061 29.6816 50.4284 29.5109C50.7508 29.7575 50.9973 30.0229 51.168 30.3074C51.3576 30.5729 51.4524 30.9047 51.4524 31.3029C51.4524 32.0235 51.0732 32.6019 50.3147 33.0381C49.5562 33.4742 48.5037 33.6923 47.1573 33.6923C46.0196 33.6923 44.9766 33.5406 44.0285 33.2372C43.0993 32.9338 42.3028 32.4786 41.6391 31.8718C40.9754 31.265 40.4634 30.516 40.1031 29.6247C39.7428 28.7145 39.5627 27.6621 39.5627 26.4674C39.5627 25.2348 39.7618 24.1634 40.16 23.2532C40.5582 22.3429 41.0987 21.5844 41.7813 20.9776C42.464 20.3708 43.2604 19.9157 44.1707 19.6123C45.0809 19.3089 46.0385 19.1572 47.0436 19.1572C48.352 19.1572 49.376 19.3942 50.1156 19.8683C50.8741 20.3423 51.2533 20.9397 51.2533 21.6603C51.2533 22.0016 51.168 22.3145 50.9973 22.5989C50.8456 22.8834 50.656 23.1299 50.4284 23.3385C50.0871 23.1489 49.6794 22.9782 49.2053 22.8265C48.7502 22.6748 48.2382 22.5989 47.6693 22.5989ZM75.3573 30.5065C75.7745 30.5065 76.1822 30.4686 76.5804 30.3927C76.9976 30.2979 77.3105 30.1841 77.5191 30.0514V27.4345L75.1867 27.6336C74.5799 27.6905 74.0868 27.8327 73.7076 28.0603C73.3473 28.2689 73.1671 28.5912 73.1671 29.0274C73.1671 29.4825 73.3378 29.8428 73.6791 30.1083C74.0204 30.3738 74.5798 30.5065 75.3573 30.5065ZM75.1867 19.1572C76.1727 19.1572 77.064 19.2615 77.8604 19.4701C78.6758 19.6597 79.368 19.9631 79.9369 20.3803C80.5058 20.7975 80.9419 21.3284 81.2453 21.9732C81.5677 22.6179 81.7289 23.3764 81.7289 24.2487V30.6772C81.7289 31.1702 81.5961 31.5684 81.3307 31.8718C81.0841 32.1563 80.7807 32.4028 80.4204 32.6114C79.8326 32.9717 79.112 33.2466 78.2587 33.4363C77.4053 33.6259 76.4382 33.7207 75.3573 33.7207C73.4041 33.7207 71.8492 33.3509 70.6924 32.6114C69.5357 31.8529 68.9573 30.7056 68.9573 29.1696C68.9573 27.8612 69.3461 26.8656 70.1236 26.1829C70.901 25.5003 72.0957 25.0736 73.7076 24.9029L77.4907 24.5047V24.1918C77.4907 23.585 77.2441 23.1394 76.7511 22.8549C76.2581 22.5705 75.547 22.4283 74.6178 22.4283C73.8972 22.4283 73.1861 22.5136 72.4844 22.6843C71.8018 22.8549 71.1855 23.0541 70.6356 23.2816C70.408 23.1299 70.2089 22.9023 70.0382 22.5989C69.8865 22.2766 69.8107 21.9352 69.8107 21.5749C69.8107 20.7406 70.2468 20.1432 71.1191 19.7829C71.669 19.5743 72.3043 19.4226 73.0249 19.3278C73.7644 19.2141 74.485 19.1572 75.1867 19.1572ZM89.328 29.9092C88.9867 29.6626 88.816 29.2739 88.816 28.7429V23.2247H91.6889C92.125 23.2247 92.4759 23.092 92.7413 22.8265C93.0258 22.561 93.168 22.1249 93.168 21.5181C93.168 21.1957 93.1206 20.8923 93.0258 20.6078C92.931 20.3044 92.8362 20.0579 92.7413 19.8683H88.816V18.0194C88.816 17.2419 88.6264 16.7109 88.2471 16.4265C87.8868 16.1231 87.2895 15.9714 86.4551 15.9714C86.0569 15.9714 85.6871 16.0093 85.3458 16.0852C85.0045 16.142 84.7295 16.1989 84.5209 16.2558V29.0274C84.5209 30.6772 84.9665 31.8718 85.8578 32.6114C86.749 33.332 87.9911 33.6923 89.584 33.6923C90.8735 33.6923 91.7742 33.4837 92.2862 33.0665C92.8172 32.6303 93.0827 32.0804 93.0827 31.4167C93.0827 31.0943 93.0258 30.8099 92.912 30.5634C92.7982 30.3169 92.656 30.0988 92.4853 29.9092C92.2578 30.004 91.9828 30.0893 91.6605 30.1652C91.3381 30.2221 91.0347 30.2505 90.7502 30.2505C90.1434 30.2505 89.6693 30.1367 89.328 29.9092Z" fill="white"/>
</svg>
