<svg width="73" height="97" viewBox="0 0 73 97" fill="none" xmlns="http://www.w3.org/2000/svg">
<path d="M40.3877 38.0828C41.0384 36.1234 43.7953 36.1234 44.4461 38.0828L48.2619 49.5838C49.1018 52.112 50.5169 54.4091 52.3951 56.2931C54.2733 58.177 56.5628 59.596 59.0823 60.4376L70.5358 64.2673C72.4881 64.9204 72.4881 67.6873 70.5358 68.3405L59.0764 72.1702C56.5574 73.0131 54.2686 74.4334 52.3914 76.3184C50.5143 78.2033 49.1005 80.5012 48.2619 83.0299L44.4461 94.5249C44.3058 94.954 44.034 95.3276 43.6697 95.5925C43.3053 95.8574 42.8668 96 42.4169 96C41.9669 96 41.5285 95.8574 41.1641 95.5925C40.7997 95.3276 40.528 94.954 40.3877 94.5249L36.5718 83.024C35.7325 80.4964 34.3183 78.1997 32.4412 76.3158C30.5641 74.4319 28.2758 73.0125 25.7573 72.1702L14.298 68.3405C13.8705 68.1996 13.4982 67.9269 13.2343 67.5612C12.9704 67.1955 12.8283 66.7555 12.8283 66.3039C12.8283 65.8523 12.9704 65.4123 13.2343 65.0466C13.4982 64.6808 13.8705 64.4081 14.298 64.2673L25.7573 60.4376C28.2758 59.5952 30.5641 58.1759 32.4412 56.292C34.3183 54.4081 35.7325 52.1114 36.5718 49.5838L40.3877 38.0828V38.0828ZM17.534 7.80739C17.6189 7.55026 17.7823 7.3265 18.0011 7.16791C18.2199 7.00932 18.4829 6.92396 18.7528 6.92396C19.0226 6.92396 19.2856 7.00932 19.5044 7.16791C19.7232 7.3265 19.8866 7.55026 19.9715 7.80739L22.261 14.7068C23.2844 17.7824 25.6863 20.1931 28.7508 21.2203L35.6253 23.5181C35.8815 23.6032 36.1044 23.7672 36.2624 23.9868C36.4205 24.2064 36.5055 24.4704 36.5055 24.7412C36.5055 25.0121 36.4205 25.276 36.2624 25.4956C36.1044 25.7152 35.8815 25.8792 35.6253 25.9643L28.7508 28.2622C27.2394 28.7675 25.8661 29.6193 24.7396 30.7498C23.6132 31.8804 22.7645 33.2587 22.261 34.7756L19.9715 41.675C19.8866 41.9322 19.7232 42.1559 19.5044 42.3145C19.2856 42.4731 19.0226 42.5585 18.7528 42.5585C18.4829 42.5585 18.2199 42.4731 18.0011 42.3145C17.7823 42.1559 17.6189 41.9322 17.534 41.675L15.2445 34.7756C14.741 33.2587 13.8924 31.8804 12.7659 30.7498C11.6394 29.6193 10.2661 28.7675 8.75466 28.2622L1.88023 25.9643C1.62403 25.8792 1.40109 25.7152 1.24307 25.4956C1.08505 25.276 1 25.0121 1 24.7412C1 24.4704 1.08505 24.2064 1.24307 23.9868C1.40109 23.7672 1.62403 23.6032 1.88023 23.5181L8.75466 21.2203C10.2661 20.7149 11.6394 19.8632 12.7659 18.7326C13.8924 17.602 14.741 16.2237 15.2445 14.7068L17.534 7.80739V7.80739ZM59.3545 1.57892C59.4129 1.40986 59.5223 1.26326 59.6676 1.15951C59.8128 1.05575 59.9867 1 60.165 1C60.3433 1 60.5171 1.05575 60.6624 1.15951C60.8076 1.26326 60.9171 1.40986 60.9755 1.57892L62.5018 6.17457C63.1822 8.22895 64.7854 9.83802 66.8323 10.5208L71.4113 12.0527C71.5798 12.1113 71.7259 12.2212 71.8293 12.3669C71.9326 12.5127 71.9882 12.6872 71.9882 12.8662C71.9882 13.0451 71.9326 13.2196 71.8293 13.3654C71.7259 13.5112 71.5798 13.621 71.4113 13.6796L66.8323 15.2115C65.8236 15.5483 64.907 16.1165 64.1552 16.8709C63.4035 17.6254 62.8374 18.5453 62.5018 19.5578L60.9755 24.1534C60.9171 24.3225 60.8076 24.4691 60.6624 24.5728C60.5171 24.6766 60.3433 24.7323 60.165 24.7323C59.9867 24.7323 59.8128 24.6766 59.6676 24.5728C59.5223 24.4691 59.4129 24.3225 59.3545 24.1534L57.8281 19.5578C57.4926 18.5453 56.9264 17.6254 56.1747 16.8709C55.423 16.1165 54.5064 15.5483 53.4976 15.2115L48.9245 13.6796C48.7561 13.621 48.61 13.5112 48.5066 13.3654C48.4032 13.2196 48.3477 13.0451 48.3477 12.8662C48.3477 12.6872 48.4032 12.5127 48.5066 12.3669C48.61 12.2212 48.7561 12.1113 48.9245 12.0527L53.5035 10.5208C55.5505 9.83802 57.1537 8.22895 57.8341 6.17457L59.3545 1.58486V1.57892Z" fill="#94FF97" stroke="black" stroke-width="2"/>
</svg>
