<svg width="22" height="22" viewBox="0 0 22 22" fill="none" xmlns="http://www.w3.org/2000/svg">
<path d="M8 11H11H8ZM14 11H11H14ZM11 11V8V11ZM11 11V14V11ZM11 21C16.523 21 21 16.523 21 11C21 5.477 16.523 1 11 1C5.477 1 1 5.477 1 11C1 12.821 1.487 14.53 2.338 16L1.5 20.5L6 19.662C7.51954 20.5411 9.24451 21.0027 11 21Z" fill="#94FF97"/>
<path d="M8 11H11H8ZM14 11H11H14ZM11 11V8V11ZM11 11V14V11ZM11 21C16.523 21 21 16.523 21 11C21 5.477 16.523 1 11 1C5.477 1 1 5.477 1 11C1 12.821 1.487 14.53 2.338 16L1.5 20.5L6 19.662C7.51954 20.5411 9.24451 21.0027 11 21Z" stroke="#212227" stroke-width="1.5" stroke-linecap="round" stroke-linejoin="round"/>
<path d="M8 11H11H8ZM14 11H11H14ZM11 11V8V11ZM11 11V14V11ZM11 21C16.523 21 21 16.523 21 11C21 5.477 16.523 1 11 1C5.477 1 1 5.477 1 11C1 12.821 1.487 14.53 2.338 16L1.5 20.5L6 19.662C7.51954 20.5411 9.24451 21.0027 11 21Z" stroke="black" stroke-opacity="0.2" stroke-width="1.5" stroke-linecap="round" stroke-linejoin="round"/>
</svg>
