<svg width="22" height="22" viewBox="0 0 22 22" fill="none" xmlns="http://www.w3.org/2000/svg">
<path d="M15 11H7H15ZM7 11L10.5 14.5L7 11ZM7 11L10.5 7.5L7 11ZM0.999998 11C0.999998 16.523 5.477 21 11 21C16.523 21 21 16.523 21 11C21 5.477 16.523 1 11 1C5.477 1 0.999998 5.477 0.999998 11Z" fill="#94FF97"/>
<path d="M15 11H7H15ZM7 11L10.5 14.5L7 11ZM7 11L10.5 7.5L7 11ZM0.999998 11C0.999998 16.523 5.477 21 11 21C16.523 21 21 16.523 21 11C21 5.477 16.523 1 11 1C5.477 1 0.999998 5.477 0.999998 11Z" stroke="#212227" stroke-width="1.5" stroke-linecap="round" stroke-linejoin="round"/>
<path d="M15 11H7H15ZM7 11L10.5 14.5L7 11ZM7 11L10.5 7.5L7 11ZM0.999998 11C0.999998 16.523 5.477 21 11 21C16.523 21 21 16.523 21 11C21 5.477 16.523 1 11 1C5.477 1 0.999998 5.477 0.999998 11Z" stroke="black" stroke-opacity="0.2" stroke-width="1.5" stroke-linecap="round" stroke-linejoin="round"/>
</svg>
