<svg width="22" height="22" viewBox="0 0 22 22" fill="none" xmlns="http://www.w3.org/2000/svg">
<path d="M11 7V15V7ZM11 15L14.5 11.5L11 15ZM11 15L7.5 11.5L11 15ZM11 21C16.523 21 21 16.523 21 11C21 5.477 16.523 1 11 1C5.477 1 1 5.477 1 11C1 16.523 5.477 21 11 21Z" fill="#94FF97"/>
<path d="M11 7V15V7ZM11 15L14.5 11.5L11 15ZM11 15L7.5 11.5L11 15ZM11 21C16.523 21 21 16.523 21 11C21 5.477 16.523 1 11 1C5.477 1 1 5.477 1 11C1 16.523 5.477 21 11 21Z" stroke="#212227" stroke-width="1.5" stroke-linecap="round" stroke-linejoin="round"/>
<path d="M11 7V15V7ZM11 15L14.5 11.5L11 15ZM11 15L7.5 11.5L11 15ZM11 21C16.523 21 21 16.523 21 11C21 5.477 16.523 1 11 1C5.477 1 1 5.477 1 11C1 16.523 5.477 21 11 21Z" stroke="black" stroke-opacity="0.2" stroke-width="1.5" stroke-linecap="round" stroke-linejoin="round"/>
</svg>
