<svg width="20" height="24" viewBox="0 0 20 24" fill="none" xmlns="http://www.w3.org/2000/svg">
<path d="M5.94995 16.4L18.6 11.45V7.60001H16.95L15.3 7.05001L13.65 6.50001L12.55 7.05001L10.9 5.40001H9.24995L5.94995 2.10001V16.4Z" fill="#94FF97"/>
<path d="M5.90174 14.8281L3.89644 12.9185C3.72901 12.7591 3.53107 12.6353 3.31453 12.5544C3.09799 12.4735 2.86733 12.4373 2.63643 12.4479C2.40552 12.4585 2.17914 12.5156 1.97091 12.616C1.76268 12.7163 1.5769 12.8578 1.42474 13.0318C1.14443 13.3517 0.993124 13.7645 1.00024 14.1898C1.00736 14.6151 1.17239 15.0226 1.46324 15.333L7.99944 22.3048C8.41634 22.7481 8.99605 23 9.60435 23H14.7017C17.3417 23 19.1017 20.8 19.1017 18.6C19.1017 18.6 19.1017 12.8538 19.1017 9.17188" fill="#94FF97"/>
<path d="M5.90174 14.8281L3.89644 12.9185C3.72901 12.7591 3.53107 12.6353 3.31453 12.5544C3.09799 12.4735 2.86733 12.4373 2.63643 12.4479C2.40552 12.4585 2.17914 12.5156 1.97091 12.616C1.76268 12.7163 1.5769 12.8578 1.42474 13.0318C1.14443 13.3517 0.993124 13.7645 1.00024 14.1898C1.00736 14.6151 1.17239 15.0226 1.46324 15.333L7.99944 22.3048C8.41634 22.7481 8.99605 23 9.60435 23H14.7017C17.3417 23 19.1017 20.8 19.1017 18.6C19.1017 18.6 19.1017 12.8538 19.1017 9.17188" stroke="black" stroke-width="1.5" stroke-linecap="round" stroke-linejoin="round"/>
<path d="M5.90173 14.8281V2.65C5.90173 2.21239 6.07557 1.79271 6.38501 1.48327C6.69444 1.17384 7.11413 1 7.55173 1C8.46253 1 9.20173 1.737 9.20173 2.6489V9.8" fill="#94FF97"/>
<path d="M19.1017 9.1719C19.1017 6.6573 15.8017 6.6573 15.8017 9.1719V9.8V7.9146C15.8017 5.4 12.5017 5.4 12.5017 7.9146V9.8V7.05C12.5017 4.5354 9.20173 4.5354 9.20173 7.05V9.8V2.6489C9.20173 1.737 8.46253 1 7.55173 1C7.11413 1 6.69444 1.17384 6.38501 1.48327C6.07557 1.79271 5.90173 2.21239 5.90173 2.65V14.8281" stroke="black" stroke-width="1.5" stroke-linecap="round" stroke-linejoin="round"/>
</svg>
